<svg xmlns="http://www.w3.org/2000/svg" width="60" height="60" viewBox="0 0 60 60" fill="none"><path d="M22.5 36.5625H20.625C20.6272 41.6404 21.9523 46.63 24.4698 51.0399L24.4988 51.0906L26.1262 50.1594L26.0975 50.1092C23.7419 45.9828 22.502 41.3139 22.5 36.5625Z" fill="black"></path><path d="M57.4504 48.7492L58.2569 45.5231L56.5639 44.3944L58.2873 40.0859L55.3122 37.1108V1.87418H45.9372V33.7204L45.435 33.5948L43.643 37.1789L42.4085 36.5617H40.3122V21.3175C41.0357 20.8146 41.6503 20.171 42.1193 19.425C42.5883 18.6791 42.9021 17.8463 43.0418 16.9763C43.1815 16.1064 43.1444 15.2171 42.9325 14.3619C42.7207 13.5066 42.3385 12.7029 41.8089 11.9987C42.48 11.4958 43.0302 10.8492 43.4191 10.1063C43.808 9.36335 44.0259 8.54282 44.0567 7.7048C44.0875 6.86678 43.9306 6.03247 43.5973 5.26295C43.264 4.49343 42.7628 3.80819 42.1305 3.25739C41.4982 2.70659 40.7507 2.30417 39.9427 2.07959C39.1347 1.85502 38.2868 1.81398 37.4609 1.95947C36.635 2.10496 35.8521 2.43331 35.1696 2.92047C34.487 3.40763 33.922 4.04127 33.516 4.775C32.4659 4.10416 31.2457 3.74818 29.9997 3.74918C29.0738 3.751 28.1586 3.948 27.3139 4.32733C26.4693 4.70666 25.7141 5.25979 25.0976 5.95065C23.8859 4.35426 22.2355 3.14533 20.348 2.47157C18.4605 1.79781 16.4177 1.6884 14.469 2.15669C12.5204 2.62499 10.7503 3.65073 9.37506 5.10857C7.99983 6.56642 7.079 8.39326 6.72506 10.3659C5.44901 10.5458 4.27308 11.1573 3.39305 12.0987C2.51302 13.0401 1.98199 14.2545 1.88838 15.5397C1.83109 16.3109 1.93473 17.0855 2.19271 17.8144C2.45069 18.5434 2.85739 19.2107 3.38698 19.7742C3.91403 20.3373 4.55088 20.7864 5.25823 21.0938C5.96558 21.4013 6.72843 21.5605 7.4997 21.5617H8.4372C9.51731 21.5631 10.5639 21.9368 11.4006 22.6199C12.2373 23.303 12.8129 24.2536 13.0304 25.3116H10.3122C9.64877 25.3116 9.00667 25.5461 8.49942 25.9737C7.99216 26.4012 7.65241 26.9944 7.54021 27.6483C7.42801 28.3022 7.5506 28.9747 7.8863 29.5469C8.222 30.1191 8.7492 30.5542 9.3747 30.7753V34.7177C9.37263 39.4488 8.13803 44.0977 5.79253 48.2064L2.19348 54.5049C1.98323 54.8728 1.87331 55.2894 1.87472 55.7132C1.87612 56.1369 1.98879 56.5528 2.20147 56.9193C2.41414 57.2858 2.71935 57.59 3.08654 57.8014C3.45373 58.0129 3.87003 58.1242 4.29375 58.1242H31.3307C31.7544 58.1242 32.1707 58.0129 32.5379 57.8015C32.9051 57.59 33.2103 57.2858 33.4229 56.9193C33.6356 56.5528 33.7483 56.1369 33.7497 55.7132C33.7511 55.2895 33.6412 54.8728 33.4309 54.5049L32.8122 53.4221V27.1867H38.4372V36.5617H37.8578L35.4804 41.3165L37.2308 43.9422L35.5239 45.6491L36.299 48.7492H34.518L35.3763 53.899C35.4841 54.5565 35.8224 55.1541 36.3308 55.5848C36.8392 56.0154 37.4843 56.251 38.1505 56.2492H39.536C39.7297 56.7975 40.0888 57.2723 40.5636 57.6081C41.0384 57.9439 41.6056 58.1242 42.1872 58.1242C42.7688 58.1242 43.336 57.9439 43.8108 57.6081C44.2857 57.2723 44.6447 56.7975 44.8384 56.2492H47.9735C48.1672 56.7975 48.5263 57.2723 49.0011 57.6081C49.4759 57.9439 50.0431 58.1242 50.6247 58.1242C51.2063 58.1242 51.7735 57.9439 52.2483 57.6081C52.7232 57.2723 53.0822 56.7975 53.2759 56.2492H54.6613C55.3276 56.251 55.9727 56.0154 56.481 55.5848C56.9894 55.1542 57.3278 54.5566 57.4355 53.8991L58.2939 48.7492H57.4504ZM56.0871 40.5375L54.9696 43.3315L54.5497 43.0516L50.9123 43.9609L50.7872 43.8359L52.3246 39.9926L54.2552 38.7056L56.0871 40.5375ZM47.8122 3.74918H53.4372V6.56168H47.8122V3.74918ZM47.8122 8.43668H53.4372V12.1867H47.8122V8.43668ZM47.8122 14.0617H53.4372V36.9975L51.9258 38.0051L50.3329 34.8193L47.8122 34.1891L47.8122 14.0617ZM46.4394 35.7786L49.0415 36.4291L50.5354 39.4169L49.3448 42.3934L48.0998 41.1484L46.6477 41.5114L45.1104 38.4367L46.4394 35.7786ZM47.5246 43.2249L49.607 45.3073L48.9186 48.7492H44.2056L44.9011 43.8808L47.5246 43.2249ZM10.3122 27.1866H25.3122C25.5608 27.1866 25.7993 27.2854 25.9751 27.4612C26.1509 27.637 26.2497 27.8755 26.2497 28.1241C26.2497 28.3728 26.1509 28.6112 25.9751 28.787C25.7993 28.9629 25.5608 29.0616 25.3122 29.0616H10.3122C10.0636 29.0616 9.82511 28.9629 9.64929 28.787C9.47347 28.6112 9.3747 28.3728 9.3747 28.1241C9.3747 27.8755 9.47347 27.637 9.64929 27.4612C9.82511 27.2854 10.0636 27.1866 10.3122 27.1866ZM25.3122 25.3116H22.661C22.8554 24.7637 23.2146 24.2894 23.6892 23.9537C24.1639 23.618 24.7308 23.4374 25.3121 23.4367H28.1247C29.1123 23.435 30.0822 23.174 30.9372 22.6798V50.1409L29.8318 48.2064C27.4863 44.0977 26.2517 39.4488 26.2497 34.7177V30.7753C26.8752 30.5542 27.4024 30.1191 27.7381 29.5469C28.0738 28.9747 28.1964 28.3022 28.0842 27.6483C27.972 26.9944 27.6322 26.4012 27.125 25.9737C26.6177 25.5461 25.9756 25.3116 25.3122 25.3116ZM31.3307 56.2492H4.29375C4.19846 56.2492 4.10485 56.2241 4.02227 56.1766C3.93969 56.129 3.87105 56.0606 3.82322 55.9782C3.77539 55.8958 3.75004 55.8023 3.74971 55.707C3.74938 55.6117 3.77408 55.518 3.82134 55.4352L7.42045 49.1367C9.92773 44.7446 11.2475 39.7751 11.2497 34.7177V30.9366H24.3747V34.7177C24.3769 39.7751 25.6966 44.7446 28.2039 49.1367L31.8031 55.4353C31.8503 55.518 31.875 55.6117 31.8747 55.707C31.8744 55.8023 31.849 55.8958 31.8012 55.9782C31.7534 56.0607 31.6847 56.1291 31.6021 56.1766C31.5196 56.2242 31.4259 56.2492 31.3307 56.2492ZM28.5216 12.2004C27.3627 12.1214 26.2076 12.4017 25.2137 13.0032C24.2199 13.6046 23.4357 14.4979 22.9682 15.5613L24.6863 16.312C25.0217 15.5433 25.6051 14.9092 26.3433 14.511C27.0814 14.1129 27.9317 13.9735 28.7584 14.1154C29.585 14.2572 30.3403 14.6719 30.9035 15.2934C31.4667 15.9149 31.8054 16.7072 31.8654 17.5437C31.9022 18.0574 31.8327 18.5732 31.6613 19.0589C31.49 19.5446 31.2204 19.9898 30.8695 20.3668C30.5185 20.7438 30.0937 21.0444 29.6215 21.25C29.1493 21.4555 28.6397 21.5617 28.1247 21.5617H25.3121C24.232 21.5631 23.1855 21.9368 22.3488 22.6199C21.5121 23.303 20.9365 24.2536 20.719 25.3116H18.7497V23.4367C18.7505 22.691 19.0471 21.9761 19.5744 21.4489C20.1016 20.9216 20.8165 20.625 21.5621 20.6242V18.7492C20.3194 18.7506 19.1279 19.2449 18.2492 20.1237C17.3704 21.0025 16.8761 22.1939 16.8747 23.4367V25.3116H14.9317C14.7044 23.7507 13.9233 22.3236 12.7309 21.2909C11.5386 20.2582 10.0146 19.6888 8.4372 19.6867H7.4997C6.98466 19.6867 6.47514 19.5806 6.0029 19.375C5.53067 19.1694 5.10583 18.8688 4.75487 18.4918C4.40392 18.1149 4.13436 17.6696 3.96301 17.1839C3.79166 16.6982 3.72219 16.1825 3.75891 15.6687C3.80944 14.9627 4.05877 14.2853 4.47807 13.715C4.89738 13.1448 5.46953 12.7048 6.12838 12.446C6.78723 12.1872 7.50587 12.1202 8.20121 12.2526C8.89656 12.3851 9.54021 12.7117 10.0577 13.1946C10.4356 13.5441 10.7367 13.9684 10.9419 14.4404C11.1471 14.9124 11.2519 15.422 11.2497 15.9367H13.1247C13.1235 15.1654 12.9643 14.4026 12.6568 13.6952C12.3494 12.9878 11.9003 12.351 11.3371 11.824C10.5808 11.1136 9.64104 10.6285 8.62384 10.4235C9.01353 8.60114 9.99545 6.95903 11.4164 5.75336C12.8374 4.54769 14.6175 3.84627 16.4789 3.75854C18.3404 3.67081 20.1786 4.20169 21.7066 5.26837C23.2347 6.33505 24.3667 7.87752 24.9261 9.65514L26.7149 9.09323C26.5594 8.59956 26.3675 8.11812 26.1407 7.65288C26.7077 6.82932 27.5234 6.20871 28.4683 5.88178C29.4133 5.55484 30.438 5.53871 31.3928 5.83574C32.3476 6.13277 33.1824 6.72739 33.7751 7.53269C34.3678 8.338 34.6874 9.31177 34.6872 10.3117H36.5622C36.5632 8.74596 36.0017 7.23197 34.9801 6.04547C35.243 5.42024 35.6705 4.87801 36.2172 4.47652C36.7638 4.07503 37.4091 3.82931 38.0844 3.76552C38.7596 3.70174 39.4395 3.82227 40.0517 4.11429C40.6639 4.40632 41.1854 4.8589 41.5607 5.42384C41.936 5.98878 42.1511 6.64493 42.183 7.32243C42.215 7.99993 42.0626 8.67341 41.7421 9.27116C41.4216 9.86891 40.945 10.3685 40.363 10.7169C39.781 11.0652 39.1155 11.2492 38.4372 11.2492V13.1242C39.0031 13.1246 39.5658 13.0394 40.1062 12.8714C40.8815 13.7667 41.289 14.9224 41.2467 16.106C41.2045 17.2896 40.7155 18.4132 39.8783 19.2509C39.0411 20.0886 37.9177 20.5782 36.7341 20.6211C35.5505 20.6641 34.3946 20.2572 33.4989 19.4823C33.7495 18.6722 33.8139 17.816 33.6874 16.9775C33.5608 16.1391 33.2466 15.34 32.7681 14.6399C32.2896 13.9398 31.6592 13.3569 30.9239 12.9345C30.1886 12.5121 29.3674 12.2611 28.5216 12.2004ZM32.8122 25.3117V21.3188C33.6209 21.884 34.5469 22.259 35.521 22.4159C36.495 22.5728 37.4919 22.5075 38.4372 22.2248V25.3117H32.8122ZM39.0166 38.4367H41.9659L43.3634 39.1355L44.7844 41.9773L43.2233 42.3676L43.1441 42.922L39.0666 42.1065L38.5829 42.5902L37.644 41.1818L39.0166 38.4367ZM39.6828 44.1418L42.8785 44.781L42.3116 48.7492H38.2317L37.6005 46.2243L39.6828 44.1418ZM42.1872 56.2492C42.0018 56.2492 41.8205 56.1942 41.6664 56.0912C41.5122 55.9882 41.392 55.8418 41.3211 55.6704C41.2501 55.4991 41.2315 55.3106 41.2677 55.1288C41.3039 54.9469 41.3932 54.7799 41.5243 54.6488C41.6554 54.5177 41.8224 54.4284 42.0043 54.3922C42.1862 54.356 42.3747 54.3746 42.546 54.4455C42.7173 54.5165 42.8637 54.6367 42.9667 54.7908C43.0697 54.945 43.1247 55.1263 43.1247 55.3117C43.1244 55.5602 43.0256 55.7985 42.8498 55.9743C42.674 56.15 42.4358 56.2489 42.1872 56.2492ZM50.6247 56.2492C50.4393 56.2492 50.258 56.1942 50.1039 56.0912C49.9497 55.9882 49.8295 55.8418 49.7586 55.6704C49.6876 55.4991 49.669 55.3106 49.7052 55.1288C49.7414 54.9469 49.8307 54.7799 49.9618 54.6488C50.0929 54.5177 50.2599 54.4284 50.4418 54.3922C50.6237 54.356 50.8122 54.3746 50.9835 54.4455C51.1548 54.5165 51.3012 54.6367 51.4042 54.7908C51.5072 54.945 51.5622 55.1263 51.5622 55.3117C51.5619 55.5602 51.4631 55.7985 51.2873 55.9743C51.1115 56.15 50.8733 56.2489 50.6247 56.2492ZM55.5861 53.5908C55.5501 53.81 55.4373 54.0092 55.2679 54.1527C55.0984 54.2963 54.8834 54.3748 54.6613 54.3742H53.2759C53.0822 53.8259 52.7232 53.3511 52.2483 53.0153C51.7735 52.6795 51.2063 52.4992 50.6247 52.4992C50.0431 52.4992 49.4759 52.6795 49.0011 53.0153C48.5263 53.3511 48.1672 53.8259 47.9735 54.3742H44.8384C44.6447 53.8259 44.2857 53.3511 43.8108 53.0153C43.336 52.6795 42.7688 52.4992 42.1872 52.4992C41.6056 52.4992 41.0384 52.6795 40.5636 53.0153C40.0888 53.3511 39.7297 53.8259 39.536 54.3742H38.1505C37.9285 54.3748 37.7134 54.2963 37.544 54.1527C37.3745 54.0092 37.2617 53.81 37.2258 53.5908L36.7314 50.6242H56.0805L55.5861 53.5908ZM55.5177 48.7492H50.8308L51.4276 45.7648L54.1997 45.0718L56.1175 46.3503L55.5177 48.7492Z" fill="black"></path><path d="M16.8749 6.56254C16.0011 6.55909 15.1388 6.76083 14.3572 7.15153C13.5756 7.54222 12.8967 8.11095 12.375 8.81194L13.8742 9.93804C14.3464 9.30827 15.0048 8.84304 15.7561 8.60826C16.5074 8.37348 17.3135 8.38104 18.0603 8.62988C18.807 8.87872 19.4566 9.35622 19.9169 9.99474C20.3772 10.6333 20.6249 11.4004 20.6249 12.1875H22.4999C22.4982 10.6962 21.9051 9.26646 20.8505 8.21193C19.796 7.1574 18.3663 6.56423 16.8749 6.56254Z" fill="black"></path></svg>