<svg xmlns="http://www.w3.org/2000/svg" width="32" height="32" viewBox="0 0 32 32" fill="none"><g id="Transparent Fleet Management" clip-path="url(#clip0_549_1697)"><g id="Group"><g id="Group_2"><path id="Vector" d="M29.931 1.52148H2.069C0.928125 1.52148 0 2.44961 0 3.59042V28.4102C0 29.551 0.928125 30.4792 2.069 30.4792H29.9311C31.0719 30.4792 32.0001 29.5511 32.0001 28.4102V3.59042C32 2.44961 31.0719 1.52148 29.931 1.52148ZM1.25 3.59042C1.25 3.13886 1.61738 2.77142 2.069 2.77142H29.9311C30.3826 2.77142 30.7501 3.1388 30.7501 3.59042V6.15117H1.25V3.59042ZM30.75 28.4103C30.75 28.8619 30.3826 29.2293 29.931 29.2293H2.069C1.61744 29.2293 1.25 28.8619 1.25 28.4103V7.40117H30.75V28.4103Z" fill="url(#paint0_linear_549_1697)"></path><path id="Vector_2" d="M3.1759 3.90646C2.90833 3.95646 2.70352 4.18927 2.67596 4.45777C2.64821 4.72846 2.80877 4.99196 3.05902 5.09584C3.59277 5.31734 4.12158 4.72371 3.84558 4.21871C3.71696 3.98334 3.43933 3.85296 3.1759 3.90646Z" fill="url(#paint1_linear_549_1697)"></path><path id="Vector_3" d="M6.03074 3.99944C5.5593 3.68532 4.92999 4.14038 5.08162 4.68532C5.15312 4.94219 5.38674 5.12932 5.6533 5.14301C5.91955 5.15669 6.1708 4.99119 6.26624 4.74332C6.36937 4.47551 6.27268 4.15769 6.03074 3.99944Z" fill="url(#paint2_linear_549_1697)"></path><path id="Vector_4" d="M8.71236 4.27993C8.50267 3.76799 7.75199 3.78099 7.5533 4.29236C7.34742 4.82224 7.92899 5.33549 8.42949 5.06936C8.70917 4.92068 8.83424 4.57255 8.71236 4.27993Z" fill="url(#paint3_linear_549_1697)"></path><path id="Vector_5" d="M23.608 19.3952C24.8934 19.3952 26.102 18.8945 27.011 17.9855C27.9204 17.0768 28.4212 15.8682 28.4212 14.582C28.4212 13.2967 27.9204 12.088 27.011 11.1787C26.1016 10.2699 24.893 9.76953 23.608 9.76953C22.3223 9.76953 21.1137 10.27 20.2049 11.1788C19.2957 12.088 18.7949 13.2967 18.7949 14.582C18.7949 17.236 20.9541 19.3952 23.608 19.3952ZM26.4737 12.4637C26.9265 13.0734 27.1712 13.809 27.1712 14.5821C27.1712 15.3086 26.9475 16.0255 26.5304 16.6205L24.233 14.3232V11.075C25.1253 11.232 25.9337 11.7367 26.4737 12.4637ZM21.0887 12.0628C21.6117 11.5398 22.2691 11.2005 22.983 11.0749V14.5821C22.983 14.7478 23.0489 14.9068 23.1661 15.024L25.6463 17.5042C25.0527 17.9202 24.3478 18.1452 23.608 18.1452C21.6433 18.1452 20.0449 16.5468 20.0449 14.5821C20.0449 13.6306 20.4156 12.7359 21.0887 12.0628Z" fill="url(#paint4_linear_549_1697)"></path><path id="Vector_6" d="M19.4199 22.9609H27.7962C28.1414 22.9609 28.4212 22.6811 28.4212 22.3359C28.4212 21.9908 28.1414 21.7109 27.7962 21.7109H19.4199C19.0747 21.7109 18.7949 21.9908 18.7949 22.3359C18.7949 22.6811 19.0747 22.9609 19.4199 22.9609Z" fill="url(#paint5_linear_549_1697)"></path><path id="Vector_7" d="M3.8125 22.9607H15.4375C15.7827 22.9607 16.0625 22.6809 16.0625 22.3357C16.0625 21.9905 15.7827 21.7107 15.4375 21.7107H14.6138V12.4756C14.6138 12.1304 14.334 11.8506 13.9888 11.8506H10.8909C10.5458 11.8506 10.2659 12.1304 10.2659 12.4756V21.7107H8.66975V16.4684C8.66975 16.1232 8.38994 15.8434 8.04475 15.8434H4.94681C4.60163 15.8434 4.32181 16.1232 4.32181 16.4684V21.7107H3.8125C3.46731 21.7107 3.1875 21.9905 3.1875 22.3357C3.1875 22.6809 3.46731 22.9607 3.8125 22.9607ZM11.5159 13.1006H13.3638V21.7107H11.5159V13.1006ZM5.57181 17.0934H7.41975V21.7107H5.57181V17.0934Z" fill="url(#paint6_linear_549_1697)"></path><path id="Vector_8" d="M27.7962 25.2295H6.71094C6.36575 25.2295 6.08594 25.5093 6.08594 25.8545C6.08594 26.1997 6.36575 26.4795 6.71094 26.4795H27.7962C28.1414 26.4795 28.4212 26.1997 28.4212 25.8545C28.4212 25.5093 28.1414 25.2295 27.7962 25.2295Z" fill="url(#paint7_linear_549_1697)"></path><path id="Vector_9" d="M3.23565 26.0934C3.33833 26.3399 3.59196 26.4964 3.8584 26.4772C4.11883 26.4586 4.3449 26.2721 4.4144 26.0206C4.56133 25.4887 3.96602 25.0354 3.49146 25.3184C3.2279 25.4756 3.11983 25.8109 3.23565 26.0934Z" fill="url(#paint8_linear_549_1697)"></path></g></g></g><defs><linearGradient id="paint0_linear_549_1697" x1="8.17345" y1="-14.6497" x2="38.5587" y2="-1.29624" gradientUnits="userSpaceOnUse"><stop stop-color="#45BF84"></stop><stop offset="1" stop-color="#408C93"></stop></linearGradient><linearGradient id="paint1_linear_549_1697" x1="2.99171" y1="3.19703" x2="4.21307" y2="3.6825" gradientUnits="userSpaceOnUse"><stop stop-color="#45BF84"></stop><stop offset="1" stop-color="#408C93"></stop></linearGradient><linearGradient id="paint2_linear_549_1697" x1="5.3775" y1="3.19993" x2="6.59853" y2="3.68601" gradientUnits="userSpaceOnUse"><stop stop-color="#45BF84"></stop><stop offset="1" stop-color="#408C93"></stop></linearGradient><linearGradient id="paint3_linear_549_1697" x1="7.82956" y1="3.21013" x2="9.04826" y2="3.69819" gradientUnits="userSpaceOnUse"><stop stop-color="#45BF84"></stop><stop offset="1" stop-color="#408C93"></stop></linearGradient><linearGradient id="paint4_linear_549_1697" x1="21.2537" y1="4.39415" x2="30.6701" y2="8.13918" gradientUnits="userSpaceOnUse"><stop stop-color="#45BF84"></stop><stop offset="1" stop-color="#408C93"></stop></linearGradient><linearGradient id="paint5_linear_549_1697" x1="21.2537" y1="21.0129" x2="22.3044" y2="24.2308" gradientUnits="userSpaceOnUse"><stop stop-color="#45BF84"></stop><stop offset="1" stop-color="#408C93"></stop></linearGradient><linearGradient id="paint6_linear_549_1697" x1="6.47603" y1="5.64623" x2="18.5071" y2="11.1909" gradientUnits="userSpaceOnUse"><stop stop-color="#45BF84"></stop><stop offset="1" stop-color="#408C93"></stop></linearGradient><linearGradient id="paint7_linear_549_1697" x1="11.7908" y1="24.5314" x2="12.2822" y2="28.0232" gradientUnits="userSpaceOnUse"><stop stop-color="#45BF84"></stop><stop offset="1" stop-color="#408C93"></stop></linearGradient><linearGradient id="paint8_linear_549_1697" x1="3.50813" y1="24.5349" x2="4.72855" y2="25.0203" gradientUnits="userSpaceOnUse"><stop stop-color="#45BF84"></stop><stop offset="1" stop-color="#408C93"></stop></linearGradient><clipPath id="clip0_549_1697"><rect width="32" height="32" fill="white"></rect></clipPath></defs></svg>